<svg viewBox="0 0 26 26" fill="none" xmlns="http://www.w3.org/2000/svg">
<path d="M7.61462 20.3943C10.2865 21.1138 15.5068 20.9339 15.0136 14.4577" stroke="black" stroke-opacity="0.7" stroke-linecap="round"/>
<path d="M25.3209 14.2063C19.1551 14.5661 15.1326 14.2063 4.03413 14.2063C-7.06433 14.2063 12.6663 1.79358 5.26729 0.714195C-2.13168 -0.36519 8.55573 18.8836 8.3502 25" stroke="black" stroke-opacity="0.7" stroke-linecap="round"/>
<path d="M8.92162 3.90967L5.7632 7.94437C5.70455 8.0193 5.7068 8.12517 5.7686 8.19753L8.92702 11.896C9.04772 12.0374 9.27911 11.952 9.27911 11.7661V4.03295C9.27911 3.84284 9.03881 3.75997 8.92162 3.90967Z" stroke="black" stroke-opacity="0.7" stroke-linecap="round"/>
<path d="M9.27911 7.7737C10.6639 9.17116 13.7463 11.1276 14.9975 7.7737C16.5615 3.58132 11.6251 3.32465 11.6251 5.8914C11.6251 8.45816 11.7392 11.8092 11.6251 14.1478" stroke="black" stroke-opacity="0.7" stroke-linecap="round"/>
</svg>
