<svg viewBox="0 0 23 23" fill="none" xmlns="http://www.w3.org/2000/svg">
<path d="M1.96509 22.4008H21.9651" stroke="black" stroke-opacity="0.4" stroke-linecap="round"/>
<path d="M21.9651 22.4008V2.40085" stroke="black" stroke-opacity="0.4" stroke-linecap="round"/>
<path d="M1.96509 22.4009L7.77461 8.21039" stroke="black" stroke-opacity="0.4" stroke-linecap="round"/>
<path d="M7.7746 8.21039L21.9651 22.4009" stroke="black" stroke-opacity="0.4" stroke-linecap="round"/>
<path d="M21.9651 22.4009L7.7746 8.21039" stroke="black" stroke-opacity="0.4" stroke-linecap="round"/>
<path d="M7.7746 8.21037L21.9651 2.40085" stroke="black" stroke-opacity="0.4" stroke-linecap="round"/>
<path d="M1.96509 22.4009L7.77461 17.7342" stroke="black" stroke-opacity="0.4" stroke-linecap="round"/>
<path d="M7.7746 17.7342V8.21039" stroke="black" stroke-opacity="0.4" stroke-linecap="round"/>
<path d="M7.7746 8.21039V17.7342" stroke="black" stroke-opacity="0.4" stroke-linecap="round"/>
<path d="M7.7746 17.7342L21.9651 22.4009" stroke="black" stroke-opacity="0.4" stroke-linecap="round"/>
<path d="M21.9651 22.4009L17.2984 8.21039" stroke="black" stroke-opacity="0.4" stroke-linecap="round"/>
<path d="M17.2984 8.21039H7.7746" stroke="black" stroke-opacity="0.4" stroke-linecap="round"/>
<path d="M7.7746 8.21039H17.2984" stroke="black" stroke-opacity="0.4" stroke-linecap="round"/>
<path d="M17.2984 8.21037L21.9651 2.40085" stroke="black" stroke-opacity="0.4" stroke-linecap="round"/>
<path d="M1.96509 22.4008L1.01724 10.9768" stroke="black" stroke-opacity="0.4" stroke-linecap="round"/>
<path d="M1.01724 10.9768L7.77461 17.7342" stroke="black" stroke-opacity="0.4" stroke-linecap="round"/>
<path d="M7.77461 17.7342L1.01724 10.9768" stroke="black" stroke-opacity="0.4" stroke-linecap="round"/>
<path d="M1.01724 10.9768L7.77461 8.21039" stroke="black" stroke-opacity="0.4" stroke-linecap="round"/>
<path d="M7.7746 8.21039L10.541 10.9768" stroke="black" stroke-opacity="0.4" stroke-linecap="round"/>
<path d="M10.541 10.9768L7.7746 17.7342" stroke="black" stroke-opacity="0.4" stroke-linecap="round"/>
<path d="M7.7746 17.7342L10.541 10.9768" stroke="black" stroke-opacity="0.4" stroke-linecap="round"/>
<path d="M10.541 10.9768L21.9651 22.4008" stroke="black" stroke-opacity="0.4" stroke-linecap="round"/>
<path d="M21.9651 22.4008L10.541 10.9768" stroke="black" stroke-opacity="0.4" stroke-linecap="round"/>
<path d="M10.541 10.9768L17.2984 8.21039" stroke="black" stroke-opacity="0.4" stroke-linecap="round"/>
<path d="M17.2984 8.21039L10.541 10.9768" stroke="black" stroke-opacity="0.4" stroke-linecap="round"/>
<path d="M10.541 10.9768L7.7746 8.21039" stroke="black" stroke-opacity="0.4" stroke-linecap="round"/>
<path d="M7.7746 8.21037L10.541 1.453" stroke="black" stroke-opacity="0.4" stroke-linecap="round"/>
<path d="M10.541 1.453L17.2984 8.21037" stroke="black" stroke-opacity="0.4" stroke-linecap="round"/>
<path d="M17.2984 8.21037L10.541 1.453" stroke="black" stroke-opacity="0.4" stroke-linecap="round"/>
<path d="M10.541 1.453L21.9651 2.40085" stroke="black" stroke-opacity="0.4" stroke-linecap="round"/>
</svg>
